<svg width="512" height="512" viewBox="0 0 512 512" fill="none" xmlns="http://www.w3.org/2000/svg">
<g clip-path="url(#clip0_905_18)">
<path d="M369.778 398.222H142.222C133.689 398.222 125.63 399.644 118.044 402.489C109.511 404.385 101.926 407.704 95.2889 412.444C87.7037 417.185 81.5407 422.874 76.8 429.511C71.1111 435.2 66.8445 442.311 64 450.844C62.1037 448.948 60.6815 447.526 59.7333 446.578C57.837 445.63 55.9407 444.681 54.0445 443.733C52.1482 442.785 50.2519 441.837 48.3556 440.889C46.4593 440.889 44.563 440.889 42.6667 440.889C27.0222 440.889 14.2222 453.689 14.2222 469.333V512H455.111V483.556C455.111 472.178 452.741 461.274 448 450.844C444.207 440.415 438.044 431.407 429.511 423.822C421.926 415.289 412.919 409.126 402.489 405.333C392.059 400.593 381.156 398.222 369.778 398.222Z" fill="#0EA5E9"/>
<path d="M199.111 384H312.889C312.889 384 327.111 512 256 512C184.889 512 199.111 384 199.111 384Z" fill="#0284C7"/>
<path d="M256 321.422C137.956 321.422 42.6667 298.667 42.6667 270.222C42.6667 243.2 137.956 220.444 256 220.444C374.044 220.444 469.333 243.2 469.333 270.222C469.333 298.667 374.044 321.422 256 321.422Z" fill="#0284C7"/>
<path d="M374.044 250.311C362.667 199.111 314.311 126.578 256 126.578C197.689 126.578 149.333 199.111 137.956 250.311C125.156 250.311 116.622 257.422 116.622 277.333C116.622 297.244 126.578 314.311 139.378 314.311C155.022 375.467 201.956 428.089 256 428.089C310.044 428.089 356.978 375.467 372.622 314.311C385.422 314.311 395.378 297.244 395.378 277.333C395.378 257.422 386.844 250.311 374.044 250.311Z" fill="#FFDC5D"/>
<path d="M199.111 294.4C190.578 294.4 184.889 288.711 184.889 280.178V265.956C184.889 258.844 190.578 251.733 199.111 251.733C207.644 251.733 213.333 258.844 213.333 265.956V280.178C213.333 288.711 207.644 294.4 199.111 294.4ZM312.889 294.4C304.356 294.4 298.667 288.711 298.667 280.178V265.956C298.667 258.844 304.356 251.733 312.889 251.733C321.422 251.733 327.111 258.844 327.111 265.956V280.178C327.111 288.711 321.422 294.4 312.889 294.4Z" fill="#662113"/>
<path d="M267.378 310.044H244.622C238.933 310.044 234.667 305.778 234.667 300.089C234.667 294.4 238.933 288.711 244.622 288.711H265.956C273.067 288.711 277.333 294.4 277.333 300.089C277.333 305.778 273.067 310.044 265.956 310.044H267.378ZM288.711 355.556H226.133C225.185 355.556 223.763 355.556 221.867 355.556C220.919 354.607 219.97 353.659 219.022 352.711C218.074 351.763 217.126 350.815 216.178 349.867C216.178 347.97 216.178 346.548 216.178 345.6V341.333C216.178 334.222 220.444 329.956 226.133 329.956H288.711C294.4 329.956 298.667 334.222 298.667 341.333V345.6C298.667 351.289 294.4 355.556 288.711 355.556Z" fill="#C1694F"/>
<path fill-rule="evenodd" clip-rule="evenodd" d="M384 292.978C384 315.733 378.311 335.644 369.778 335.644C369.778 334.696 369.304 334.222 368.356 334.222C369.304 336.119 369.778 338.489 369.778 341.333C369.778 368.356 359.822 368.356 359.822 368.356C369.778 393.956 351.289 419.556 351.289 419.556C351.289 459.378 322.844 459.378 322.844 459.378C322.844 497.778 284.444 484.978 284.444 484.978C274.489 497.778 256 497.778 256 497.778C256 497.778 237.511 497.778 227.556 484.978C227.556 484.978 189.156 497.778 189.156 459.378C189.156 459.378 160.711 459.378 160.711 419.556C160.711 419.556 142.222 393.956 152.178 368.356C152.178 368.356 142.222 368.356 142.222 341.333C142.222 341.333 142.222 340.859 142.222 339.911C142.222 339.911 142.222 339.437 142.222 338.489C142.222 337.541 142.222 337.067 142.222 337.067C142.222 336.119 142.696 335.17 143.644 334.222C142.696 334.222 142.222 334.696 142.222 335.644C133.689 335.644 128 315.733 128 292.978C128 273.067 132.267 256 137.956 251.733C137.007 250.785 136.059 249.363 135.111 247.467C129.422 237.511 139.378 221.867 156.444 211.911C173.511 201.956 192 201.956 197.689 211.911C203.378 223.289 194.844 238.933 177.778 248.889C167.822 254.578 157.867 256 149.333 256C153.6 263.111 156.444 277.333 156.444 292.978C156.444 307.2 153.6 320 149.333 328.533C155.022 328.533 163.556 332.8 167.822 338.489C177.778 328.533 193.422 317.156 211.911 312.889C240.356 307.2 253.156 318.578 256 327.111C258.844 318.578 270.222 307.2 300.089 312.889C317.156 317.156 334.222 328.533 344.178 338.489C348.444 334.222 356.978 328.533 362.667 328.533C358.4 320 355.556 307.2 355.556 292.978C355.556 277.333 358.4 263.111 362.667 256C360.77 256 358.874 255.526 356.978 254.578C355.081 254.578 353.185 254.104 351.289 253.156C349.393 253.156 347.496 252.681 345.6 251.733C343.704 250.785 342.281 249.837 341.333 248.889C324.267 238.933 314.311 223.289 320 211.911C327.111 201.956 345.6 201.956 362.667 211.911C379.733 221.867 388.267 237.511 382.578 247.467C381.63 248.415 381.156 249.363 381.156 250.311C380.207 250.311 379.733 250.785 379.733 251.733C378.785 251.733 378.311 252.207 378.311 253.156C377.363 253.156 376.415 253.156 375.467 253.156C381.156 260.267 384 275.911 384 292.978ZM332.8 352.711C321.422 349.867 308.622 344.178 294.4 341.333C267.378 341.333 257.422 338.489 256 332.8C253.156 338.489 243.2 341.333 217.6 341.333C203.378 344.178 189.156 348.444 179.2 352.711C189.156 365.511 203.378 378.311 217.6 368.356C244.622 349.867 256 355.556 256 355.556C256 355.556 267.378 349.867 294.4 368.356C308.622 378.311 322.844 365.511 332.8 352.711Z" fill="#E6E7E8"/>
<path d="M366.933 216.178C348.444 177.778 267.378 0 256 0C244.622 0 163.556 177.778 145.067 216.178C76.8 227.556 42.6667 250.311 42.6667 270.222C128 241.778 199.111 236.089 256 236.089C312.889 236.089 384 241.778 469.333 270.222C469.333 250.311 435.2 227.556 366.933 216.178Z" fill="#0EA5E9"/>
<path d="M71.1111 526.222H42.6667V183.467L28.4445 128H85.3333L71.1111 183.467V526.222Z" fill="#D99E82"/>
<path d="M56.8889 128C32.7111 128 14.2222 109.511 14.2222 85.3333C14.2222 61.1555 32.7111 42.6667 56.8889 42.6667C81.0667 42.6667 99.5556 61.1555 99.5556 85.3333C99.5556 109.511 81.0667 128 56.8889 128Z" fill="#38BDF8"/>
<path d="M49.7778 99.5556C38.4 99.5556 28.4445 89.6 28.4445 78.2222C28.4445 66.8444 38.4 56.8889 49.7778 56.8889C61.1556 56.8889 71.1111 66.8444 71.1111 78.2222C71.1111 89.6 61.1556 99.5556 49.7778 99.5556Z" fill="#7DD3FC"/>
<path d="M99.5556 433.778C99.5556 460.8 81.0667 483.556 56.8889 483.556C32.7111 483.556 14.2222 460.8 14.2222 433.778C14.2222 406.756 32.7111 398.222 56.8889 398.222C81.0667 398.222 99.5556 406.756 99.5556 433.778Z" fill="#FFDC5D"/>
<path d="M354.133 220.444H157.867C155.022 220.444 152.178 221.393 149.333 223.289C146.489 224.237 144.118 225.659 142.222 227.556C140.326 229.452 138.904 231.822 137.956 234.667C136.059 237.511 135.111 240.356 135.111 243.2V439.467C135.111 442.311 136.059 445.156 137.956 448C138.904 450.844 140.326 453.215 142.222 455.111C144.118 457.007 146.489 458.43 149.333 459.378C152.178 461.274 155.022 462.222 157.867 462.222H354.133C356.978 462.222 359.822 461.274 362.667 459.378C365.511 458.43 367.881 457.007 369.778 455.111C371.674 453.215 373.096 450.844 374.044 448C375.941 445.156 376.889 442.311 376.889 439.467V243.2C376.889 240.356 375.941 237.511 374.044 234.667C373.096 231.822 371.674 229.452 369.778 227.556C367.881 225.659 365.511 224.237 362.667 223.289C359.822 221.393 356.978 220.444 354.133 220.444Z" fill="#CCD6DD"/>
<path fill-rule="evenodd" clip-rule="evenodd" d="M365.511 216.178C369.304 217.126 372.622 219.022 375.467 221.867C378.311 224.711 380.207 228.03 381.156 231.822C383.052 235.615 384 239.407 384 243.2V439.467C384 443.259 383.052 447.052 381.156 450.844C380.207 454.637 378.311 457.956 375.467 460.8C372.622 463.644 369.304 465.541 365.511 466.489C361.719 468.385 357.926 469.333 354.133 469.333H157.867C154.074 469.333 150.281 468.385 146.489 466.489C142.696 465.541 139.378 463.644 136.533 460.8C133.689 457.956 131.793 454.637 130.844 450.844C128.948 447.052 128 443.259 128 439.467V243.2C128 239.407 128.948 235.615 130.844 231.822C131.793 228.03 133.689 224.711 136.533 221.867C139.378 219.022 142.696 217.126 146.489 216.178C150.281 214.281 154.074 213.333 157.867 213.333H354.133C357.926 213.333 361.719 214.281 365.511 216.178ZM324.267 228.978V273.067H368.356V243.2C368.356 234.667 362.667 228.978 354.133 228.978H324.267ZM324.267 348.444V393.956H369.778V348.444H324.267ZM324.267 288.711V334.222H368.356V288.711H324.267ZM264.533 228.978V273.067H310.044V228.978H264.533ZM264.533 288.711V334.222H310.044V288.711H264.533ZM264.533 348.444V393.956H308.622V348.444H264.533ZM204.8 228.978V273.067H250.311V228.978H204.8ZM204.8 288.711V334.222H248.889V288.711H204.8ZM204.8 348.444V393.956H250.311V348.444H204.8ZM145.067 273.067H190.578V228.978H159.289C152.178 228.978 145.067 234.667 145.067 243.2V273.067ZM145.067 288.711V334.222H190.578V288.711H145.067ZM145.067 348.444V393.956H189.156V348.444H145.067ZM190.578 453.689V408.178H145.067V439.467C145.067 446.578 152.178 453.689 160.711 453.689H190.578ZM206.222 408.178V453.689H250.311V408.178H206.222ZM267.378 408.178V453.689H311.467V408.178H267.378ZM374.044 439.467V408.178H328.533V453.689H358.4C366.933 453.689 374.044 446.578 374.044 439.467Z" fill="#E1E8ED"/>
<path d="M354.133 453.689C352.237 453.689 350.815 453.689 349.867 453.689C348.919 453.689 347.496 453.215 345.6 452.267C344.652 451.318 343.704 450.37 342.756 449.422C341.807 448.474 340.859 447.526 339.911 446.578L267.378 305.778L221.867 351.289C220.919 352.237 219.97 353.185 219.022 354.133C218.074 355.081 217.126 355.556 216.178 355.556C214.281 355.556 212.859 356.03 211.911 356.978C210.963 356.978 210.015 356.504 209.067 355.556C207.17 355.556 205.748 355.556 204.8 355.556C203.852 354.607 202.904 354.133 201.956 354.133C201.007 353.185 200.059 352.237 199.111 351.289C198.163 350.341 197.689 349.393 197.689 348.444L145.067 250.311C143.644 247.467 142.222 243.2 143.644 238.933C145.067 234.667 147.911 231.822 150.756 230.4C155.022 228.978 159.289 227.556 162.133 228.978C166.4 230.4 169.244 233.244 170.667 236.089L214.756 315.733L260.267 270.222C262.163 268.326 264.059 267.378 265.956 267.378C268.8 266.43 271.17 265.956 273.067 265.956C275.911 266.904 278.282 267.852 280.178 268.8C282.074 269.748 283.496 271.644 284.444 274.489L366.933 432.356C367.882 434.252 368.356 436.148 368.356 438.044C369.304 439.941 369.304 441.837 368.356 443.733C367.407 445.63 366.459 447.526 365.511 449.422C364.563 450.37 363.141 451.318 361.244 452.267C358.4 453.215 356.03 453.689 354.133 453.689Z" fill="#0EA5E9"/>
</g>
<defs>
<clipPath id="clip0_905_18">
<rect width="512" height="512" fill="white"/>
</clipPath>
</defs>
</svg>
